HIERARCHY
ROOT hip
{
  OFFSET 0.0 0.0 0.0
  CHANNELS 6 Xposition Yposition Zposition Zrotation Yrotation Xrotation
  JOINT torso
  {
    OFFSET 0.0 0.0 0.0
    CHANNELS 3 Zrotation Xrotation Yrotation
    JOINT neck
    {
      OFFSET -31.42098999999993 328.8025209999999 74.3554680000002
      CHANNELS 3 Zrotation Xrotation Yrotation
      JOINT head
      {
        OFFSET 3.3519900000001144 303.81732099999994 206.53942900000015
        CHANNELS 3 Zrotation Xrotation Yrotation
        End Site
        {
          OFFSET 0.0 0.0 0.0
        }
      }
    }
    JOINT left_collar
    {
      OFFSET -31.42098999999993 328.8025209999999 74.3554680000002
      CHANNELS 3 Zrotation Xrotation Yrotation
      JOINT left_upper_arm
      {
        OFFSET -124.490479 -8.162841999999841 8.226441000000023
        CHANNELS 3 Zrotation Xrotation Yrotation
        JOINT left_forearm
        {
          OFFSET -253.595764 -1.5758060000000569 105.0729980000001
          CHANNELS 3 Zrotation Xrotation Yrotation
          JOINT left_hand
          {
            OFFSET -269.48803699999996 0.1478270000000066 -55.346191999999974
            CHANNELS 3 Zrotation Xrotation Yrotation
            End Site
            {
              OFFSET 0.0 0.0 0.0
            }
          }
        }
      }
    }
    JOINT right_collar
    {
      OFFSET -31.42098999999993 328.8025209999999 74.3554680000002
      CHANNELS 3 Zrotation Xrotation Yrotation
      JOINT right_upper_arm
      {
        OFFSET 162.02484099999998 0.46441600000002836 2.2303470000001653
        CHANNELS 3 Zrotation Xrotation Yrotation
        JOINT right_forearm
        {
          OFFSET 240.01246700000004 -25.835875999999985 121.34179699999959
          CHANNELS 3 Zrotation Xrotation Yrotation
          JOINT right_hand
          {
            OFFSET 252.48539699999992 18.910399999999868 -67.53466800000001
            CHANNELS 3 Zrotation Xrotation Yrotation
            End Site
            {
              OFFSET 0.0 0.0 0.0
            }
          }
        }
      }
    }
  }
}
MOTION
Frames: 16
Frame Time: 0.01
-224.0094529661354 260.3772718391652 1370.3710274519303 2.7598453777125274 -4.915335593589288 2.183520487075835 -0.5488940506935284 3.387665467915606 0.43442645413954334 -3.6300453165706443 -2.9485308834559527 2.5504182817240557 0.0 0.0 0.0 1.6994493330549245 0.5645738747463578 -5.59119745914498 46.32015371662851 6.756132845498069 28.955320968674044 44.7580501552272 -3.2840183208518723 -15.264348666286246 0.0 0.0 0.0 0.09965048271942041 -0.02234328864528733 5.604941088955841 -49.62486027754442 8.035816679811926 -30.837568623736566 -52.378168612999325 -9.791593717458243 11.100586299179994 0.0 0.0 0.0
-223.8586509006301 260.33099951708095 1370.0774239912269 2.7383223185608783 -4.910593298572081 2.1689879506077303 -0.5443035984005735 3.3838494339009095 0.4331678211820068 -3.656128415590603 -2.9783000999567304 2.569337594395282 0.0 0.0 0.0 1.7088555128746497 0.5615892768939396 -5.541118978202186 46.3133544704447 6.754876502886501 28.95559399514732 44.7533343436291 -3.282674537827548 -15.266677511129267 0.0 0.0 0.0 0.11354846524703655 -0.023486260412409737 5.674861881696684 -49.6326689187996 8.023080925880002 -30.86242314218708 -52.37223760388085 -9.79152139322621 11.09804152911325 0.0 0.0 0.0
-223.70950362505639 260.2824527987653 1369.7829441921933 2.716440249882088 -4.906551001407002 2.1556206681503345 -0.5396649376528484 3.3799583506381445 0.4318924378025411 -3.6820449622281797 -3.007633610796477 2.5881363055844715 0.0 0.0 0.0 1.7188845915022704 0.5586892493079926 -5.491298286382414 46.30652966308819 6.753920796319843 28.955176053502925 44.748319411598 -3.281228298367079 -15.269196441835751 0.0 0.0 0.0 0.12701615837610344 -0.024620121609828502 5.7451262702457635 -49.63984405509191 8.01026321897794 -30.887130334009385 -52.36615212204561 -9.791077419363283 11.096321731292717 0.0 0.0 0.0
-223.56114419779522 260.23093363097996 1369.4860149606768 2.694304515224798 -4.903490731899851 2.1438075897273445 -0.5352075003549452 3.376012658475363 0.4306475013730324 -3.7076134636911715 -3.0364318790831124 2.6066853893288027 0.0 0.0 0.0 1.729677685288108 0.555899840776929 -5.4418662428835995 46.29969889044504 6.753377254774408 28.95382136885548 44.743021240518964 -3.279709273337983 -15.271836802781097 0.0 0.0 0.0 0.1399702886204832 -0.02573710838681437 5.815316859462061 -49.646292617067274 7.997451247307307 -30.911502755489682 -52.35991345640836 -9.790224771950172 11.095517165114703 0.0 0.0 0.0
-223.4124110060897 260.1757654963414 1369.1848002111028 2.672021630939481 -4.901675807577383 2.133887251654195 -0.5311615411278119 3.372026909592587 0.42947986279311384 -3.7326798170715616 -3.0646261458771047 2.624875559318379 0.0 0.0 0.0 1.7413574646797152 0.5532400939216308 -5.392895909114285 46.29288435408826 6.753352660063577 28.951295765645604 44.73746385455301 -3.2781503019089495 -15.274523822984701 0.0 0.0 0.0 0.1523368612690452 -0.026829835875625933 5.8850566522294505 -49.651947959076274 7.984722698658918 -30.93538159315219 -52.35351741080718 -9.788932544850965 11.095700892902144 0.0 0.0 0.0
-223.26185522094775 260.1163250654646 1368.8772541112 2.649697563419038 -4.901340448825889 2.1261318975829795 -0.5277508312994122 3.3680090316537417 0.42843451413668276 -3.757122085524122 -3.092182066337402 2.642620729422044 0.0 0.0 0.0 1.7540206374204885 0.550721104476659 -5.344401178218261 46.286110263628785 6.753944291572691 28.94738724611234 44.731680363068264 -3.276586866253289 -15.277178061973649 0.0 0.0 0.0 0.16405280773106157 -0.02789151126465374 5.954016839077292 -49.656774561229675 7.972143042784339 -30.95864236375175 -52.34695474030074 -9.787177751719122 11.096924623675367 0.0 0.0 0.0
-223.10775358421162 260.0520730201989 1368.5611770808723 2.627435801817739 -4.902680531773094 2.1207338654076433 -0.525185615033532 3.363960052706121 0.427553168824653 -3.7808538046155507 -3.119102504960098 2.6598604337032246 0.0 0.0 0.0 1.7677311295580054 0.5483453852828645 -5.296338027097251 46.27940185272961 6.755235312662189 28.941916114162982 44.72571386121016 -3.275056571521178 -15.279716835956151 0.0 0.0 0.0 0.17506729077658748 -0.028916121203228628 6.021921391264443 -49.66077130544291 7.959764471210559 -30.981198036645623 -52.34021205922177 -9.784947011162814 11.099215051666658 0.0 0.0 0.0
-222.94812641054708 259.98258274547277 1368.2342722134765 2.6053352293338614 -4.905845913497092 2.1177949578656583 -0.523656068062604 3.3598743515716625 0.42687298844715676 -3.8038256296267803 -3.145429407604875 2.676561068854899 0.0 0.0 0.0 1.782514292575441 0.5461065905965128 -5.248608648920289 46.27278397126755 6.757290442084387 28.93474430260219 44.71961820010158 -3.273598635853938 -15.282055596320784 0.0 0.0 0.0 0.18534262051286737 -0.029898582640267148 6.088548214163907 -49.663973105773096 7.94762605283847 -31.002999393792695 -52.33327319364089 -9.782238014554597 11.10257091912703 0.0 0.0 0.0
-222.7807606900904 259.9075656108673 1367.8941998795551 2.5834877762728428 -4.910934647094387 2.117319376178301 -0.5233264550653505 3.35574044376279 0.4264254965528596 -3.826025228510308 -3.1712447356253923 2.69271588944077 0.0 0.0 0.0 1.798352463265195 0.5439896499525974 -5.201068634367669 46.26627920707043 6.760152018932967 28.9257836357201 44.71345851265196 -3.2722533858750618 -15.284109250204368 0.0 0.0 0.0 0.19485477302466975 -0.030834850402971452 6.153726890725333 -49.666450801669484 7.9357550359253555 -31.02403271176135 -52.32612089266532 -9.779060669867613 11.106961020871696 0.0 0.0 0.0
-222.60323810903284 259.8268916618987 1367.5386285087966 2.5619758000197774 -4.9179892676839545 2.119210621856342 -0.5243301079122562 3.351542237335304 0.4262356979731187 -3.847475426227012 -3.1966704898921408 2.708343758309779 0.0 0.0 0.0 1.8151821781997393 0.5419713470426992 -5.1535372178642795 46.259905492731434 6.763836545051238 28.91500281451413 44.70731136940791 -3.2710617429927993 -15.28579343515006 0.0 0.0 0.0 0.20359354264015814 -0.03172197969036507 6.217333304255135 -49.66830935845594 7.924169121612375 -31.044315084126783 -52.318738767718784 -9.775437817664224 11.112323340723641 0.0 0.0 0.0
-222.41296767171448 259.74060472381336 1367.1652799444817 2.5408690995754784 -4.926995205063426 2.123272581105305 -0.5267652590755051 3.3472606215087306 0.4263213979748541 -3.8682307014874873 -3.221867863599404 2.7234867218278587 0.0 0.0 0.0 1.8328932853353588 0.5400213581490301 -5.105810415209869 46.253673174729336 6.768331777126339 28.902432945692873 44.701264444251144 -3.2700646744305124 -15.287025788602165 0.0 0.0 0.0 0.21156238470278882 -0.03255814592154437 6.279281644735074 -49.66968453837179 7.912879462044358 -31.063887873127335 -52.31111331330626 -9.771405430597447 11.118565466487688 0.0 0.0 0.0
-222.20722246818954 259.6489311824735 1366.7719683146565 2.5202214534749 -4.937881287632614 2.129214813369555 -0.5306916830171369 3.3428752090864995 0.4266926952623129 -3.888372215267837 -3.2470355467448506 2.73820653430332 0.0 0.0 0.0 1.8513301056159648 0.5381037390354514 -5.0576766804647075 46.24758156209353 6.7735944400201715 28.888171452038563 44.695415591938584 -3.269302569919587 -15.28772728869733 0.0 0.0 0.0 0.21877800244216303 -0.03334262647391325 6.339514446218155 -49.670738278650354 7.901894105314514 -31.082808860922373 -52.30323588007447 -9.767012235470007 11.125566371926226 0.0 0.0 0.0
-221.9831800617112 259.5522820240954 1366.3566320053249 2.500066579978305 -4.9505222481789115 2.136661884357561 -0.5361280386957411 3.338366052958994 0.42735161073701416 -3.908001608752479 -3.2724071771154097 2.7525802963005 0.0 0.0 0.0 1.870294693266629 0.5361788228139425 -5.008934534332723 46.24161501825609 6.779548637025923 28.872384210527553 44.689871275377456 -3.2688144932128815 -15.28782377814772 0.0 0.0 0.0 0.22526969360884078 -0.03407574797824958 6.397991366985517 -49.67165302607965 7.891221615718567 -31.101143664579027 -52.29510450642733 -9.762318729738956 11.13317959212207 0.0 0.0 0.0
-221.7379660094043 259.4512480437881 1365.917358948589 2.4804134585992457 -4.964743107145303 2.1451664221042233 -0.5430497775320664 3.333715187622108 0.4282918109314115 -3.927233851716842 -3.298247913212743 2.766695401512912 0.0 0.0 0.0 1.8895521427340747 0.5342054676114888 -4.959411483870111 46.23573870035888 6.786085033737442 28.855305779480645 44.68474432501857 -3.268637252630255 -15.287247803290423 0.0 0.0 0.0 0.2310784137703104 -0.03475879975993511 6.454677431330421 -49.672625239985244 7.880874624794524 -31.118956916909145 -52.28672554526196 -9.757395591054214 11.14123776908245 0.0 0.0 0.0
-221.4687001489954 259.3465884169454 1365.4524059524308 2.461241016616783 -4.980325275399328 2.1542254357039883 -0.5513874864434951 3.328907889754346 0.42949839005393864 -3.9461894546219733 -3.324850105140221 2.780644009449989 0.0 0.0 0.0 1.9088378026841657 0.5321435731530324 -4.908983466850516 46.22989408368627 6.793060886263227 28.837237605163544 44.68015106062739 -3.268804241199531 -15.285940893683044 0.0 0.0 0.0 0.23625546005085254 -0.03539391058328872 6.50953142710907 -49.67385821778529 7.8708731025902905 -31.136303633704056 -52.27811503181975 -9.752321493066873 11.149558514408003 0.0 0.0 0.0
-221.17254541503385 259.2392130294427 1364.9602131526462 2.4424922647378167 -4.997014186175073 2.163299330848853 -0.5610255698659047 3.323933592960594 0.43094768527395677 -3.964986375640482 -3.352528051148323 2.7945172739074176 0.0 0.0 0.0 1.9278661820072744 0.5299567693091025 -4.857594007507931 46.22399444227806 6.8003009763307105 28.818544133651407 44.676207852413 -3.2693440143203727 -15.283856373748144 0.0 0.0 0.0 0.24086065543646581 -0.03598388379451183 6.562495089435943 -49.67555435891419 7.861247179916474 -31.153221103131607 -52.26929972691676 -9.747180348295048 11.157951513120452 0.0 0.0 0.0
